<svg xmlns="http://www.w3.org/2000/svg" viewBox="0 0 6100 6080" fill="none">
<g transform="translate(0,6080) scale(1,-1)" fill="#B7876B">
<path d="M2755 3922 c-45 -28 -49 -36 -103 -192 -28 -80 -72 -203 -97 -275
-26 -71 -73 -206 -105 -300 -32 -93 -69 -197 -81 -230 -105 -290 -229 -665
-227 -685 3 -21 9 -26 38 -28 91 -8 314 213 353 348 8 30 36 153 62 272 25
119 60 262 78 316 116 350 406 532 677 426 191 -75 294 -237 269 -424 -14
-102 -76 -194 -166 -247 -76 -44 -202 -41 -257 6 -19 16 -19 15 -1 -14 30 -48
57 -75 105 -103 39 -23 56 -27 125 -27 65 1 91 6 135 26 181 85 275 290 226
489 -34 135 -67 192 -175 303 -116 120 -243 196 -456 276 -206 76 -342 98
-400 63z"/>
<path d="M2926 2491 c-15 -17 -14 -21 25 -69 41 -52 51 -61 47 -41 -2 6 7 18
19 26 22 15 25 13 63 -25 22 -22 40 -44 40 -49 0 -5 -12 -20 -26 -34 -26 -24
-26 -24 -47 1 -12 14 -21 23 -20 21 2 -2 -2 -10 -8 -17 -7 -8 -7 -14 1 -19 7
-4 3 -17 -10 -36 -12 -16 -18 -29 -14 -29 3 0 1 -7 -7 -16 -10 -13 -10 -17 2
-24 21 -14 115 -32 147 -29 15 2 33 0 40 -4 19 -13 16 82 -4 105 -9 9 -18 36
-20 58 -2 39 -25 85 -37 74 -3 -3 -24 9 -46 27 -35 27 -39 35 -28 48 11 14 10
14 -6 2 -15 -12 -20 -11 -37 4 -11 10 -17 22 -13 28 3 6 1 7 -6 3 -6 -4 -18
-3 -25 3 -10 8 -17 6 -30 -8z"/>
<path d="M2816 2408 c9 -46 41 -118 53 -118 5 0 13 5 16 10 5 8 12 7 23 -2 13
-11 14 -11 10 2 -3 8 1 23 10 33 8 9 13 19 11 21 -2 1 -32 22 -66 45 -63 41
-63 41 -57 9z"/>
<path d="M944 1255 c0 -159 2 -223 3 -142 2 82 2 212 0 290 -1 78 -3 12 -3
-148z"/>
<path d="M2704 1385 c0 -88 2 -123 3 -77 2 46 2 118 0 160 -1 42 -3 5 -3 -83z"/>
<path d="M2574 1240 c0 -162 2 -229 3 -147 2 81 2 213 0 295 -1 81 -3 14 -3
-148z"/>
<path d="M2024 1085 c0 -93 2 -133 3 -88 2 45 2 122 0 170 -1 48 -3 12 -3 -82z"/>
<path d="M2703 1036 c1 -131 1 -131 4 -12 2 66 8 125 13 131 7 8 5 12 -4 12
-11 0 -14 -26 -13 -131z"/>
<path d="M1882 1113 c-11 -4 -10 -8 2 -22 8 -9 17 -36 19 -61 3 -32 4 -25 4
23 0 37 -3 67 -6 66 -3 0 -12 -3 -19 -6z"/>
<path d="M2823 811 c-11 -18 -25 -19 -184 -19 -94 -1 -173 -3 -177 -6 -3 -3
79 -6 182 -6 155 0 188 3 192 15 10 24 0 36 -13 16z"/>
<path d="M3511 806 c-10 -12 -41 -15 -152 -14 -77 0 -143 -3 -147 -6 -3 -4 65
-6 152 -5 127 1 158 4 163 15 8 21 -2 27 -16 10z"/>
<path d="M4060 805 c-11 -13 -48 -15 -242 -15 -127 1 -232 -1 -236 -4 -3 -3
102 -6 234 -6 228 0 240 1 252 20 14 24 10 26 -8 5z"/>
<path d="M838 788 c-13 -3 121 -5 297 -5 176 1 273 3 215 4 -252 7 -491 7
-512 1z"/>
<path d="M4169 787 c4 -4 115 -6 247 -5 l239 3 -247 5 c-136 3 -244 2 -239 -3z"/>
</g>
<g transform="translate(0,6080) scale(1,-1)" fill="#c62828">
<path d="M2755 3922 c-41 -25 -49 -37 -74 -109 -11 -34 -60 -172 -107 -305
-48 -134 -95 -268 -105 -298 -9 -30 -41 -120 -69 -200 -208 -585 -266 -761
-257 -784 13 -34 99 -10 156 43 18 17 37 31 41 31 14 0 121 123 141 162 10 20
23 38 28 40 12 4 44 133 95 374 20 94 51 216 69 271 123 371 432 548 714 410
88 -42 152 -102 194 -179 33 -61 34 -67 34 -173 0 -96 -3 -116 -23 -153 -32
-60 -87 -118 -141 -150 -40 -23 -57 -27 -128 -27 -69 0 -86 3 -112 23 -30 22
-30 22 0 -23 17 -26 48 -57 69 -71 46 -31 158 -54 169 -35 5 7 18 10 33 6 35
-9 124 34 186 90 29 26 62 70 81 108 96 190 47 417 -130 601 -45 48 -85 86
-90 86 -4 0 -19 10 -33 23 -14 13 -42 32 -63 43 -21 10 -44 25 -51 31 -7 7
-25 16 -40 20 -15 3 -32 12 -38 18 -19 19 -251 102 -347 124 -109 26 -163 26
-202 3z"/>
<path d="M2941 2503 c0 -7 -10 -13 -21 -13 -11 0 -20 -2 -20 -5 0 -3 27 -37
60 -77 80 -95 80 -131 1 -70 -20 16 -62 46 -94 66 -59 37 -59 37 -52 4 13 -63
46 -123 93 -171 38 -38 60 -52 112 -67 36 -10 89 -21 118 -23 52 -4 52 -4 52
44 0 30 -4 49 -11 49 -6 0 -9 9 -6 20 3 11 1 20 -5 20 -5 0 -8 8 -7 18 4 23
-10 62 -22 62 -5 0 -9 7 -9 15 0 8 -8 15 -18 15 -10 0 -32 13 -50 29 -17 16
-41 32 -52 36 -12 4 -20 16 -21 28 0 12 -3 16 -6 10 -7 -19 -31 -16 -36 5 -3
9 -5 11 -6 5z"/>
<path d="M2704 1415 c0 -104 2 -146 3 -92 2 54 2 139 0 190 -1 51 -3 7 -3 -98z"/>
<path d="M944 1245 c0 -170 2 -242 3 -158 2 83 2 223 0 310 -1 87 -3 19 -3
-152z"/>
<path d="M2574 1240 c0 -173 2 -244 3 -157 2 86 2 228 0 315 -1 86 -3 15 -3
-158z"/>
<path d="M2024 1085 c0 -93 2 -133 3 -88 2 45 2 122 0 170 -1 48 -3 12 -3 -82z"/>
<path d="M2702 1033 l2 -138 3 130 c3 88 8 132 16 137 8 5 7 8 -5 8 -16 0 -18
-12 -16 -137z"/>
<path d="M1074 1025 c0 -60 1 -84 3 -52 2 32 2 81 0 110 -2 29 -3 3 -3 -58z"/>
<path d="M1880 1110 c-13 -8 -13 -10 2 -10 15 0 18 -13 21 -97 3 -98 3 -98 5
10 1 59 -1 107 -5 107 -5 0 -15 -5 -23 -10z"/>
<path d="M2831 813 c-1 -22 -2 -23 -188 -26 l-188 -2 188 -3 c157 -2 189 0
193 13 3 8 4 20 1 27 -3 7 -6 3 -6 -9z"/>
<path d="M3520 807 c0 -14 -19 -17 -157 -20 l-158 -3 158 -2 c134 -2 159 0
164 13 3 9 3 19 -1 22 -3 4 -6 -1 -6 -10z"/>
<path d="M4163 805 c2 -19 10 -20 242 -20 l240 -1 -237 3 c-214 3 -237 5 -242
21 -4 13 -4 12 -3 -3z"/>
<path d="M817 788 c2 -5 145 -8 318 -8 173 0 316 3 318 8 3 4 -140 7 -318 7
-178 0 -321 -3 -318 -7z"/>
<path d="M3698 783 c67 -2 177 -2 245 0 67 1 12 3 -123 3 -135 0 -190 -2 -122
-3z"/>
</g>
<g transform="translate(0,6080) scale(1,-1)" fill="#FFFFFF">
<path d="M2825 4471 c-106 -28 -169 -107 -170 -217 0 -50 5 -69 30 -110 40
-63 105 -96 245 -125 177 -36 415 -133 568 -232 181 -117 322 -297 368 -470
18 -67 18 -207 0 -273 -32 -123 -126 -248 -230 -309 -152 -89 -306 -87 -446 6
-119 80 -172 209 -136 332 22 76 82 139 149 155 37 10 48 18 53 37 22 87 -132
63 -220 -35 -128 -142 -117 -355 26 -506 94 -100 200 -144 345 -144 154 0 277
48 382 149 76 74 124 148 157 246 38 111 41 273 6 385 -117 370 -473 632
-1041 764 -126 29 -151 49 -159 125 -4 50 -3 53 37 91 38 36 47 40 94 40 86 0
304 -62 478 -135 327 -137 648 -397 840 -682 69 -101 161 -290 167 -340 9 -80
-38 -143 -108 -143 -69 0 -128 78 -99 132 16 29 39 47 62 48 9 0 22 11 29 24
33 74 -65 94 -135 29 -82 -77 -73 -205 18 -281 102 -83 249 -50 309 69 35 72
34 120 -8 224 -179 443 -590 833 -1081 1025 -242 95 -449 142 -530 121z"/>
<path d="M2563 3982 c-7 -4 -32 -64 -57 -132 -81 -225 -266 -750 -266 -756 0
-3 -15 -46 -34 -97 -19 -51 -77 -216 -129 -367 -52 -151 -119 -340 -147 -420
-66 -182 -68 -219 -17 -267 55 -49 92 -46 222 21 194 100 287 176 372 301 88
131 120 222 178 512 52 258 88 376 148 482 122 216 324 298 513 210 184 -87
238 -315 104 -446 -46 -45 -105 -59 -180 -43 -69 15 -93 4 -88 -39 8 -67 165
-90 264 -39 65 34 128 106 155 178 31 81 24 204 -16 286 -39 80 -105 143 -199
190 -70 34 -88 39 -170 42 -74 3 -103 0 -156 -18 -89 -30 -190 -99 -245 -168
-102 -128 -155 -272 -224 -607 -47 -225 -78 -330 -123 -413 -88 -162 -173
-239 -375 -341 -80 -40 -123 -51 -123 -32 0 5 25 81 56 168 31 87 75 214 99
283 24 69 71 204 105 300 34 96 72 207 85 245 13 39 85 243 160 455 149 419
165 472 149 498 -12 19 -43 26 -61 14z"/>
<path d="M2782 2601 c-23 -4 -48 -13 -55 -20 -20 -20 -15 -176 7 -244 38 -116
132 -215 246 -258 58 -22 234 -38 284 -25 25 6 26 10 26 69 0 190 -64 334
-186 418 -77 53 -211 78 -322 60z m224 -116 c98 -44 168 -145 182 -268 5 -38
5 -70 1 -72 -14 -9 -162 15 -204 34 -81 36 -152 130 -169 224 -6 31 -4 37 6
31 45 -26 140 -93 182 -128 l49 -40 -18 34 c-21 43 -73 109 -134 173 l-45 47
49 -6 c28 -3 73 -16 101 -29z"/>
<path d="M830 1661 c0 -14 11 -22 44 -30 74 -18 71 -3 71 -397 0 -346 0 -354
-21 -374 -12 -12 -40 -24 -63 -27 -31 -4 -41 -10 -41 -24 0 -19 12 -19 317
-17 l318 3 16 75 c30 144 30 138 11 142 -12 3 -27 -15 -53 -62 -21 -38 -50
-75 -70 -88 -31 -22 -43 -23 -136 -20 -159 5 -147 -24 -151 386 -2 258 1 343
11 362 8 17 28 30 60 39 34 10 47 20 47 33 0 17 -12 18 -180 18 -170 0 -180
-1 -180 -19z"/>
<path d="M2460 1660 c0 -13 9 -21 28 -25 51 -11 76 -29 84 -63 5 -19 8 -182 6
-364 l-3 -330 -28 -24 c-16 -14 -41 -24 -58 -24 -22 0 -29 -5 -29 -20 0 -19 7
-20 185 -20 174 0 185 1 185 19 0 14 -10 20 -42 24 -29 4 -50 14 -65 32 -22
24 -23 35 -23 166 l0 140 38 -8 c74 -16 194 -9 242 14 139 66 200 231 133 364
-58 113 -141 139 -450 139 -196 0 -203 -1 -203 -20z m436 -49 c54 -24 82 -67
95 -140 20 -113 -19 -209 -101 -251 -43 -22 -110 -26 -159 -9 l-31 11 0 188
c0 184 1 189 22 204 31 22 123 20 174 -3z"/>
<path d="M3309 1651 c-26 -27 -30 -37 -25 -64 12 -62 70 -85 120 -46 19 15 26
30 26 55 0 32 -28 74 -49 74 -5 0 -16 3 -25 6 -10 4 -27 -6 -47 -25z"/>
<path d="M3635 1408 c-7 -21 -35 -169 -35 -184 0 -8 8 -14 19 -14 13 0 24 14
35 45 28 73 52 85 167 85 l99 0 -54 -82 c-243 -375 -286 -444 -286 -455 0 -10
51 -13 243 -13 l244 0 21 74 c27 91 28 116 5 116 -11 -1 -30 -22 -48 -52 -44
-75 -77 -89 -204 -86 l-101 3 71 110 c183 282 259 405 259 420 0 13 -25 15
-185 15 -148 0 -192 3 -216 15 -23 12 -30 13 -34 3z"/>
<path d="M4216 1408 c-3 -7 -10 -49 -16 -92 -7 -44 -14 -86 -17 -93 -3 -8 2
-13 15 -13 14 0 27 16 46 54 18 36 35 57 54 64 32 13 202 22 202 11 0 -6 -141
-227 -297 -464 -59 -89 -67 -85 206 -85 l238 0 21 73 c29 99 30 111 10 115
-11 2 -23 -8 -34 -30 -21 -43 -52 -76 -86 -94 -29 -15 -228 -21 -228 -6 0 4
43 72 95 152 168 259 223 347 230 369 6 21 5 21 -187 21 -155 0 -198 3 -214
15 -24 18 -34 19 -38 3z"/>
<path d="M1809 1401 c-50 -10 -144 -57 -185 -93 -41 -36 -44 -71 -10 -94 39
-25 69 -15 80 26 12 47 52 99 80 106 31 7 91 -19 110 -49 9 -13 17 -48 19 -78
l2 -54 -105 -41 c-160 -63 -180 -74 -201 -108 -28 -43 -22 -129 11 -175 25
-37 89 -70 133 -71 32 0 91 28 135 65 l31 26 16 -31 c10 -18 31 -38 51 -46 34
-14 37 -13 89 16 61 35 68 42 60 63 -4 9 -19 14 -42 13 -57 -2 -63 19 -63 222
0 125 -4 182 -14 206 -20 49 -75 87 -146 101 -8 1 -31 -1 -51 -4z m99 -388
l-3 -107 -34 -23 c-63 -42 -129 -24 -158 44 -12 31 -12 38 4 71 14 29 35 46
98 79 44 23 84 42 88 43 4 0 6 -48 5 -107z"/>
<path d="M4975 1396 c-105 -33 -195 -98 -195 -139 0 -28 29 -57 57 -57 25 0
38 15 47 54 8 34 67 96 91 96 32 0 86 -33 100 -61 8 -15 15 -49 15 -74 l0 -46
-72 -34 c-40 -18 -91 -38 -114 -44 -60 -16 -120 -63 -134 -106 -25 -76 17
-162 98 -197 58 -26 99 -19 170 27 l54 37 29 -35 c43 -52 69 -54 138 -12 44
27 58 41 54 55 -4 14 -12 17 -43 13 -25 -4 -40 -1 -46 8 -5 8 -11 102 -14 209
-5 183 -6 197 -29 233 -39 64 -131 97 -206 73z m115 -385 c0 -107 0 -109 -27
-126 -15 -10 -45 -20 -68 -23 -55 -6 -94 26 -102 83 -7 55 20 86 116 135 42
21 77 39 79 40 1 0 2 -49 2 -109z"/>
<path d="M3335 1380 c-38 -10 -82 -21 -97 -24 -31 -7 -29 -36 2 -36 10 0 27
-8 39 -17 20 -17 21 -27 23 -227 2 -207 1 -209 -21 -227 -13 -11 -34 -19 -47
-19 -17 0 -24 -6 -24 -20 0 -19 7 -20 155 -20 148 0 155 1 155 20 0 14 -7 20
-24 20 -13 0 -34 9 -47 19 -24 19 -24 21 -24 228 0 259 -3 323 -12 322 -5 0
-39 -9 -78 -19z"/>
</g>
</svg>